{
    "accessors": [
        {
            "bufferView": 0,
            "componentType": 5126,
            "count": 4802,
            "max": [
                0.5349981188774109,
                0.34896618127822876,
                0.20531490445137024
            ],
            "min": [
                -0.5349981188774109,
                -7.450580596923828e-09,
                -0.20531490445137024
            ],
            "type": "VEC3"
        },
        {
            "bufferView": 1,
            "componentType": 5126,
            "count": 4802,
            "type": "VEC2"
        },
        {
            "bufferView": 2,
            "componentType": 5126,
            "count": 4802,
            "type": "VEC3"
        },
        {
            "bufferView": 3,
            "componentType": 5123,
            "count": 7101,
            "type": "SCALAR"
        },
        {
            "bufferView": 4,
            "componentType": 5123,
            "count": 3,
            "type": "SCALAR"
        },
        {
            "bufferView": 5,
            "componentType": 5123,
            "count": 4806,
            "type": "SCALAR"
        },
        {
            "bufferView": 6,
            "componentType": 5123,
            "count": 3,
            "type": "SCALAR"
        },
        {
            "bufferView": 7,
            "componentType": 5123,
            "count": 7101,
            "type": "SCALAR"
        }
    ],
    "asset": {
        "generator": "Adobe Creative Cloud",
        "version": "2.0"
    },
    "bufferViews": [
        {
            "buffer": 0,
            "byteLength": 57624
        },
        {
            "buffer": 0,
            "byteLength": 38416,
            "byteOffset": 57624
        },
        {
            "buffer": 0,
            "byteLength": 57624,
            "byteOffset": 96040
        },
        {
            "buffer": 0,
            "byteLength": 14202,
            "byteOffset": 153664
        },
        {
            "buffer": 0,
            "byteLength": 6,
            "byteOffset": 167866
        },
        {
            "buffer": 0,
            "byteLength": 9612,
            "byteOffset": 167872
        },
        {
            "buffer": 0,
            "byteLength": 6,
            "byteOffset": 177484
        },
        {
            "buffer": 0,
            "byteLength": 14202,
            "byteOffset": 177490
        },
        {
            "buffer": 0,
            "byteLength": 106631,
            "byteOffset": 191692
        },
        {
            "buffer": 0,
            "byteLength": 17625,
            "byteOffset": 298323
        }
    ],
    "buffers": [
        {
            "byteLength": 315948,
            "uri": "3djseeq.bin"
        }
    ],
    "extensionsRequired": [
        "KHR_texture_transform",
        "KHR_texture_transform",
        "KHR_texture_transform",
        "KHR_texture_transform"
    ],
    "extensionsUsed": [
        "KHR_texture_transform",
        "KHR_texture_transform",
        "KHR_texture_transform",
        "KHR_texture_transform"
    ],
    "images": [
        {
            "bufferView": 8,
            "mimeType": "image/jpeg",
            "name": "Layer 1.JPG"
        },
        {
            "bufferView": 9,
            "mimeType": "image/jpeg",
            "name": "Layer 1 Extrusion Material - Default Texture.JPG"
        }
    ],
    "materials": [
        {
            "alphaMode": "OPAQUE",
            "doubleSided": true,
            "emissiveFactor": [
                0.0,
                0.0,
                0.0
            ],
            "name": "Layer 1 Front Inflation Material",
            "pbrMetallicRoughness": {
                "baseColorFactor": [
                    0.63922119140625,
                    0.5960693359375,
                    0.690185546875,
                    1.0
                ],
                "baseColorTexture": {
                    "extensions": {
                        "KHR_texture_transform": {
                            "offset": [
                                -0.0003435176913626492,
                                0.02350655384361744
                            ],
                            "rotation": 0.0,
                            "scale": [
                                0.9867417812347412,
                                0.9231372475624084
                            ]
                        }
                    },
                    "index": 0
                },
                "metallicFactor": 0.07999999821186066,
                "roughnessFactor": 0.3333333432674408
            }
        },
        {
            "alphaMode": "OPAQUE",
            "doubleSided": true,
            "emissiveFactor": [
                0.0,
                0.0,
                0.0
            ],
            "name": "Layer 1 Front Bevel Material",
            "pbrMetallicRoughness": {
                "baseColorFactor": [
                    0.5,
                    0.5,
                    0.5,
                    1.0
                ],
                "baseColorTexture": {
                    "extensions": {
                        "KHR_texture_transform": {
                            "offset": [
                                -0.0003435176913626492,
                                0.02350655384361744
                            ],
                            "rotation": 0.0,
                            "scale": [
                                0.9867417812347412,
                                0.9231372475624084
                            ]
                        }
                    },
                    "index": 0
                },
                "metallicFactor": 0.07999999821186066,
                "roughnessFactor": 0.3333333432674408
            }
        },
        {
            "alphaMode": "OPAQUE",
            "doubleSided": true,
            "emissiveFactor": [
                0.0,
                0.0,
                0.0
            ],
            "name": "Layer 1 Extrusion Material",
            "pbrMetallicRoughness": {
                "baseColorFactor": [
                    0.7301911115646362,
                    0.6599889993667603,
                    0.8130297064781189,
                    1.0
                ],
                "baseColorTexture": {
                    "index": 1
                },
                "metallicFactor": 0.07999999821186066,
                "roughnessFactor": 0.3333333432674408
            }
        },
        {
            "alphaMode": "OPAQUE",
            "doubleSided": true,
            "emissiveFactor": [
                0.0,
                0.0,
                0.0
            ],
            "name": "Layer 1 Back Bevel Material",
            "pbrMetallicRoughness": {
                "baseColorFactor": [
                    0.61175537109375,
                    0.564697265625,
                    0.662750244140625,
                    1.0
                ],
                "baseColorTexture": {
                    "extensions": {
                        "KHR_texture_transform": {
                            "offset": [
                                -0.0003435176913626492,
                                0.02350655384361744
                            ],
                            "rotation": 0.0,
                            "scale": [
                                0.9867417812347412,
                                0.9231372475624084
                            ]
                        }
                    },
                    "index": 0
                },
                "metallicFactor": 0.07999999821186066,
                "roughnessFactor": 0.3333333432674408
            }
        },
        {
            "alphaMode": "OPAQUE",
            "doubleSided": true,
            "emissiveFactor": [
                0.0,
                0.0,
                0.0
            ],
            "name": "Layer 1 Back Inflation Material",
            "pbrMetallicRoughness": {
                "baseColorFactor": [
                    0.61175537109375,
                    0.564697265625,
                    0.67059326171875,
                    1.0
                ],
                "baseColorTexture": {
                    "extensions": {
                        "KHR_texture_transform": {
                            "offset": [
                                -0.0003435176913626492,
                                0.02350655384361744
                            ],
                            "rotation": 0.0,
                            "scale": [
                                0.9867417812347412,
                                0.9231372475624084
                            ]
                        }
                    },
                    "index": 0
                },
                "metallicFactor": 0.07999999821186066,
                "roughnessFactor": 0.3333333432674408
            }
        }
    ],
    "meshes": [
        {
            "name": "Layer 1",
            "primitives": [
                {
                    "attributes": {
                        "NORMAL": 2,
                        "POSITION": 0,
                        "TEXCOORD_0": 1
                    },
                    "indices": 3,
                    "material": 0,
                    "mode": 4
                },
                {
                    "attributes": {
                        "NORMAL": 2,
                        "POSITION": 0,
                        "TEXCOORD_0": 1
                    },
                    "indices": 4,
                    "material": 1,
                    "mode": 4
                },
                {
                    "attributes": {
                        "NORMAL": 2,
                        "POSITION": 0,
                        "TEXCOORD_0": 1
                    },
                    "indices": 5,
                    "material": 2,
                    "mode": 4
                },
                {
                    "attributes": {
                        "NORMAL": 2,
                        "POSITION": 0,
                        "TEXCOORD_0": 1
                    },
                    "indices": 6,
                    "material": 3,
                    "mode": 4
                },
                {
                    "attributes": {
                        "NORMAL": 2,
                        "POSITION": 0,
                        "TEXCOORD_0": 1
                    },
                    "indices": 7,
                    "material": 4,
                    "mode": 4
                }
            ]
        }
    ],
    "nodes": [
        {
            "matrix": [
                0.0009771051118150353,
                8.296889427583665e-05,
                0.00014970811025705189,
                0.0,
                2.4106513592414558e-05,
                0.0008344287634827197,
                -0.0006197809125296772,
                0.0,
                -0.00024264308740384877,
                0.0008382408996112645,
                0.0011191100347787142,
                0.0,
                -0.5291984677314758,
                -0.020367825403809547,
                0.022861028090119362,
                0.9999999403953552
            ],
            "mesh": 0,
            "name": "Layer 1"
        }
    ],
    "scene": 0,
    "scenes": [
        {
            "name": "Scene",
            "nodes": [
                0
            ]
        }
    ],
    "textures": [
        {
            "source": 0
        },
        {
            "source": 1
        }
    ]
}
